<?xml version="1.0" encoding="UTF-8"?>
<svg id="Layer_2" data-name="Layer 2" xmlns="http://www.w3.org/2000/svg" viewBox="0 0 894.56 149.73">
  <defs>
    <style>
      .cls-1 {
        fill: #fff;
      }
    </style>
  </defs>
  <g id="Layer_1-2" data-name="Layer 1">
    <g>
      <path class="cls-1" d="M248.29,0v25.72h-88.17V0h88.17ZM224.41,51.43v25.72h-64.29v-25.72h64.29ZM160.12,53.08h25.72v75.49h-25.72V53.08ZM248.29,102.86v25.72h-81.19v-25.72h81.19Z"/>
      <path class="cls-1" d="M548.49,1.15c36.55,0,66.13,29.57,66.13,66.13s-29.57,66.13-66.13,66.13-66.13-29.58-66.13-66.13S511.94,1.15,548.49,1.15ZM548.49,107.69c22.23,0,40.41-18.19,40.41-40.41s-18.19-40.41-40.41-40.41-40.41,18.18-40.41,40.41,18.18,40.41,40.41,40.41ZM531.96,50.93h33.06l-15.61,40.04-17.45-40.04Z"/>
      <path class="cls-1" d="M0,.48h87.25l-25.16,40.23v-15.25h-17.08l31.6,50.33L123.62.48h29.39l-76.41,122.52L0,.48Z"/>
      <path class="cls-1" d="M431.21,109.01V25.61h-34.35l-15.43-24.98h124.72l-15.61,24.98h-34.35v123.62l-24.98-40.23Z"/>
      <path class="cls-1" d="M723.62,149.73l-46.84-74.76h-27.74v48.67h-24.98V49.99h88.17c6.61,0,11.94-5.33,11.94-11.94s-5.33-11.94-11.94-11.94h-63.19v15.25l-24.98-40.04h88.17c20.39,0,37.11,16.53,37.11,36.74s-16.72,36.92-37.11,36.92h-5.88l46.65,74.76h-29.39Z"/>
      <path class="cls-1" d="M284.62,60.54v62.27h-24.98V.3l88.35,88.35V.3h24.98v148.6l-88.35-88.35Z"/>
      <path class="cls-1" d="M894.56,123.44h-87.25s25.16-40.23,25.16-40.23v15.25s17.08,0,17.08,0l-31.6-50.33-47.02,75.31h-29.39S817.96.92,817.96.92l76.6,122.52Z"/>
    </g>
  </g>
</svg>